<svg width="322" height="140" viewBox="0 0 322 140" fill="none" xmlns="http://www.w3.org/2000/svg">
<path d="M55.9254 130.067C55.7645 130.145 55.2027 130.299 54.24 130.528C53.2773 130.757 52.0737 131.063 50.6292 131.446C49.1847 131.83 47.5797 132.251 45.8143 132.711C44.1289 133.172 42.4435 133.632 40.7581 134.093C39.1526 134.554 37.6277 134.977 36.1832 135.36C34.7377 135.824 33.6132 136.211 32.8096 136.522C32.6064 133.319 32.4423 130.197 32.3173 127.155C32.1877 124.514 32.0181 121.872 31.8085 119.229C31.6788 116.587 31.5842 114.386 31.5244 112.625C30.7842 114.377 29.799 116.566 28.5687 119.192C27.4184 121.819 26.2685 124.406 25.1192 126.952C23.7252 129.897 22.2908 132.88 20.8159 135.904L0.437964 133.869C4.51961 126.796 8.60033 119.802 12.6801 112.888C16.7599 105.975 20.5234 98.7378 23.9707 91.1769C23.5321 87.5716 23.0889 84.3663 22.6412 81.561C22.2734 78.7566 21.8252 75.9912 21.2965 73.265C20.7679 70.5387 20.1992 67.812 19.5905 65.0848C18.9828 62.2776 18.3792 59.1105 17.7797 55.5833L37.0696 47.8847C37.4263 51.6491 37.8184 55.8139 38.2459 60.3791C38.7534 64.9452 39.1851 69.1505 39.5409 72.9948C41.4268 69.0163 43.2726 65.0372 45.0786 61.0578C46.9644 57.0792 48.8899 53.1411 50.8548 49.2434L68.1999 54.1233C66.0795 57.6191 64.1624 60.8373 62.4484 63.7778C60.7345 66.7182 59.1005 69.6596 57.5466 72.6019C55.9926 75.5443 54.4377 78.5666 52.882 81.6689C51.3271 84.6912 49.6481 88.0721 47.8449 91.8116C48.2844 95.3369 48.8062 98.6631 49.4102 101.79C50.0143 104.917 50.6588 108.005 51.3438 111.053C52.1088 114.102 52.8333 117.191 53.5174 120.319C54.2823 123.368 55.085 126.617 55.9254 130.067ZM122.02 71.4236C121.945 77.9831 121.154 84.1745 119.647 89.9975C118.22 95.7415 116.319 101.04 113.943 105.893C111.568 110.666 108.799 114.954 105.635 118.758C102.552 122.483 99.3146 125.686 95.9235 128.367C92.5334 130.968 89.1101 132.969 85.6538 134.369C82.1984 135.69 78.9108 136.332 75.791 136.296C73.1511 136.266 70.7568 135.758 68.608 134.773C66.4601 133.709 64.5973 132.207 63.0195 130.269C61.4426 128.25 60.1917 125.716 59.2667 122.665C58.4226 119.535 58.0255 115.81 58.0752 111.491C58.1267 107.011 58.741 102.298 59.9179 97.3509C61.0949 92.4041 62.6714 87.5019 64.6474 82.6443C66.6235 77.7867 69.0367 73.1742 71.8871 68.8067C74.7375 64.4392 77.862 60.5949 81.2604 57.2737C84.6598 53.8726 88.2908 51.1942 92.1536 49.2385C96.0163 47.2828 100.028 46.3289 104.187 46.3768C107.787 46.4182 110.738 47.2122 113.04 48.7588C115.424 50.2263 117.242 52.1673 118.494 54.5819C119.827 56.9174 120.757 59.5683 121.283 62.5345C121.808 65.5008 122.054 68.4638 122.02 71.4236ZM75.9899 108.577C75.9797 109.456 76.1292 110.378 76.4381 111.342C76.747 112.305 77.1773 113.15 77.729 113.877C78.2807 114.603 78.9533 115.251 79.7468 115.82C80.6212 116.31 81.5384 116.561 82.4983 116.572C86.0981 116.613 89.3121 115.41 92.1405 112.963C94.9688 110.515 97.3236 107.502 99.2049 103.923C101.086 100.345 102.53 96.521 103.537 92.4523C104.624 88.3846 105.187 84.6708 105.225 81.311C105.237 80.3511 105.168 79.3102 105.021 78.1885C104.954 77.0676 104.726 76.0249 104.337 75.0604C104.028 74.0968 103.478 73.2904 102.685 72.6412C101.973 71.913 100.978 71.5415 99.6977 71.5268C97.1378 71.4973 94.7706 72.1101 92.596 73.3652C90.4215 74.6203 88.4418 76.3176 86.6571 78.4572C84.9533 80.5178 83.4457 82.9006 82.1345 85.6057C80.8243 88.2308 79.673 90.9377 78.6809 93.7265C77.7697 96.4362 77.0989 99.1086 76.6685 101.744C76.2382 104.379 76.012 106.657 75.9899 108.577ZM126.08 31.5076C121.338 33.3732 116.236 35.2746 110.773 37.2119C105.311 39.0692 100.211 40.8507 95.4707 42.5562C95.4008 41.6754 95.37 40.875 95.3783 40.155C95.3866 39.4351 95.3948 38.7151 95.4031 37.9952C95.4179 36.7152 95.4326 35.4353 95.4473 34.1554C95.5429 32.7964 95.5991 31.397 95.6156 29.9571C101.119 24.5 106.295 19.6392 111.144 15.3747C115.994 11.1103 120.525 6.72209 124.737 2.21025C125.075 7.5745 125.218 12.5765 125.164 17.2162C125.191 21.8568 125.496 26.6206 126.08 31.5076ZM164.787 111.038C162.817 115.416 160.613 119.231 158.175 122.483C155.818 125.656 153.307 128.347 150.642 130.557C148.057 132.687 145.439 134.257 142.787 135.267C140.135 136.276 137.569 136.767 135.089 136.738C132.61 136.71 130.336 136.124 128.269 134.98C126.282 133.837 124.542 132.137 123.048 129.879C121.553 127.622 120.345 124.848 119.423 121.557C118.581 118.267 118.185 114.422 118.236 110.023C118.322 102.503 119.447 95.1156 121.611 87.86C123.775 80.5244 126.771 73.9584 130.598 68.162C134.425 62.3657 138.919 57.7371 144.079 54.2762C149.32 50.7363 155.06 49.0022 161.3 49.074C163.22 49.0961 165.055 49.5172 166.806 50.3374C168.556 51.1576 170.063 52.295 171.327 53.7496C172.59 55.2043 173.57 56.9757 174.266 59.0638C175.042 61.1529 175.415 63.4773 175.386 66.0371C175.38 66.5171 175.374 67.0371 175.368 67.597C175.362 68.077 175.316 68.5965 175.23 69.1556L159.462 73.1744C158.525 71.1635 157.417 70.1507 156.137 70.136C154.857 70.1213 153.489 70.8656 152.031 72.3689C150.655 73.7932 149.273 75.6974 147.885 78.0816C146.499 80.3858 145.148 83.0104 143.834 85.9555C142.521 88.8206 141.368 91.7275 140.374 94.6763C139.38 97.625 138.547 100.456 137.876 103.168C137.286 105.801 136.981 107.958 136.961 109.638C136.932 112.198 137.231 114.001 137.859 115.049C138.567 116.097 139.481 116.627 140.601 116.64C141.481 116.65 142.485 116.342 143.612 115.715C144.74 115.008 145.79 114.14 146.762 113.111C147.735 112.002 148.629 110.772 149.445 109.422C150.26 108.071 150.836 106.717 151.172 105.361L164.787 111.038ZM247.168 78.8638C247.119 83.1035 246.588 87.4977 245.576 92.0463C244.644 96.5959 243.273 101.02 241.463 105.32C239.653 109.619 237.446 113.714 234.841 117.605C232.236 121.495 229.277 124.901 225.963 127.823C222.73 130.666 219.144 132.945 215.204 134.66C211.265 136.295 207.095 137.087 202.696 137.036C200.136 137.007 197.62 136.618 195.148 135.869C192.758 135.042 190.372 133.774 187.992 132.067C188.668 128.954 189.387 125.522 190.15 121.771C190.827 118.578 191.629 114.947 192.556 110.878C193.484 106.728 194.375 102.258 195.23 97.4675C194.669 97.5411 194.109 97.5746 193.549 97.5682C193.069 97.5627 192.629 97.5576 192.229 97.553L190.909 97.5378L195.015 84.8642C195.254 84.947 195.534 84.9902 195.854 84.9939L197.774 85.016C198.962 79.1092 200.068 73.3616 201.092 67.773C202.118 62.1044 202.977 56.954 203.67 52.3216C207.117 51.7212 210.604 51.1613 214.13 50.6418C217.656 50.1224 221.259 49.8838 224.939 49.9261C229.019 49.9731 232.49 50.7731 235.352 52.3261C238.295 53.8001 240.632 55.8671 242.361 58.5271C244.092 61.1072 245.337 64.1617 246.096 67.6907C246.857 71.1397 247.214 74.864 247.168 78.8638ZM212.388 97.7849C211.544 101.615 210.698 105.566 209.851 109.637C209.084 113.708 208.154 118.098 207.06 122.805C209.96 121.079 212.709 118.55 215.307 115.22C217.907 111.809 220.23 108.036 222.278 103.899C224.326 99.7624 225.975 95.5011 227.225 91.1152C228.477 86.6493 229.124 82.5365 229.168 78.7767C229.191 76.7768 229.012 74.9347 228.631 73.2502C228.251 71.4857 227.629 69.9584 226.764 68.6684C225.898 67.3783 224.83 66.366 223.558 65.6313C222.287 64.8966 220.811 64.5196 219.131 64.5003C218.29 68.0909 217.49 71.5619 216.731 74.9134C216.053 78.2658 215.373 81.6982 214.693 85.2106C215.572 85.2207 216.412 85.2304 217.212 85.2396C218.013 85.1688 218.734 85.1371 219.374 85.1445C220.014 85.1518 220.654 85.1192 221.295 85.0466L218.266 97.9726L216.466 97.9519C215.906 97.9454 215.266 97.938 214.546 97.9298C213.907 97.8424 213.188 97.7941 212.388 97.7849ZM258.794 135.521C258.074 135.513 256.673 135.617 254.59 135.833C252.509 135.969 250.346 136.184 248.102 136.478C245.86 136.693 243.817 136.909 241.975 137.128C240.212 137.348 239.25 137.497 239.089 137.575C240.089 134.146 241.092 130.357 242.1 126.209C243.109 121.98 244.119 117.591 245.132 113.043C246.225 108.415 247.239 103.746 248.173 99.0367C249.187 94.328 250.16 89.7789 251.09 85.3893C253.208 75.173 255.289 64.6763 257.333 53.8991L276.086 51.1146C273.883 61.81 271.682 72.3054 269.484 82.6008C268.553 86.9903 267.581 91.5395 266.567 96.2481C265.632 100.958 264.698 105.627 263.765 110.257C262.912 114.887 262.02 119.397 261.089 123.787C260.24 128.097 259.475 132.009 258.794 135.521ZM271.45 36.9003C270.25 36.8865 269.086 37.2332 267.957 37.9402C266.83 38.5673 265.741 39.3548 264.69 40.3028C263.719 41.2517 262.748 42.2406 261.776 43.2695C260.804 44.2984 259.914 45.1682 259.105 45.8789C258.074 45.147 257.162 44.4565 256.369 43.8073C255.657 43.1591 254.983 42.5913 254.349 42.104C253.714 41.6166 253.16 41.0902 252.687 40.5247C252.687 40.5247 252.933 40.0075 253.425 38.9731C253.916 37.9387 254.611 36.6666 255.509 35.1568C256.407 33.5671 257.467 31.8591 258.688 30.0331C259.989 28.2079 261.408 26.5441 262.945 25.0417C264.484 23.4593 266.139 22.1583 267.911 21.1386C269.683 20.0389 271.61 19.501 273.69 19.525C275.609 19.5471 277.283 20.1263 278.71 21.2628C280.217 22.4002 281.523 23.6154 282.628 24.9081C283.733 26.201 284.6 27.371 285.228 28.4183C285.936 29.4665 286.49 29.9929 286.89 29.9975C288.09 30.0113 289.254 29.6247 290.384 28.8376C291.514 27.9706 292.606 26.9431 293.659 25.7551C294.713 24.5672 295.727 23.3787 296.7 22.1899C297.674 21.001 298.565 20.0512 299.373 19.3404C300.325 20.0714 301.197 20.7615 301.99 21.4107C302.782 22.0598 303.496 22.6281 304.13 23.1154C304.765 23.6027 305.319 24.1291 305.792 24.6946C304.067 28.595 302.107 32.0527 299.913 35.0677C299.017 36.4174 298.002 37.6859 296.869 38.8729C295.735 40.0599 294.522 41.1261 293.232 42.0713C291.941 43.0165 290.571 43.8008 289.124 44.4242C287.758 44.9685 286.275 45.2314 284.675 45.213C282.755 45.191 281.28 44.774 280.249 43.962C279.299 43.0711 278.43 42.101 277.642 41.0519C276.854 40.0027 276.025 39.0731 275.154 38.2631C274.364 37.3739 273.129 36.9197 271.45 36.9003ZM308.014 136.088C306.011 136.385 303.807 136.719 301.402 137.092C298.998 137.464 296.834 137.799 294.91 138.097C295.261 135.461 295.611 132.865 295.96 130.309C296.226 128.071 296.452 125.834 296.637 123.596C296.903 121.359 297.125 119.441 297.304 117.843L286.864 117.723L281.866 134.947C280.103 135.166 278.02 135.422 275.617 135.715C273.214 135.927 270.971 136.141 268.889 136.357C266.325 136.648 263.802 136.939 261.318 137.23C264.64 126.628 267.921 116.185 271.159 105.902C272.489 101.597 273.861 97.0921 275.275 92.388C276.769 87.6849 278.223 83.0213 279.636 78.3973C281.13 73.6941 282.542 69.1901 283.872 64.8851C285.201 60.5801 286.367 56.6333 287.368 53.0445C292.813 52.7072 298.338 52.2907 303.944 51.7951C309.63 51.3005 315.158 50.6041 320.529 49.7058C320.26 52.2629 319.943 55.4594 319.579 59.2955C319.295 63.0525 319.008 67.1695 318.716 71.6464C318.425 76.1234 318.131 80.8003 317.835 85.6772C317.539 90.5541 317.244 95.351 316.949 100.068C316.422 111.103 315.848 122.817 315.225 135.21C312.82 135.583 310.417 135.875 308.014 136.088ZM289.882 105.757C290.202 105.761 290.762 105.767 291.562 105.776C292.443 105.706 293.323 105.677 294.203 105.687C295.164 105.618 296.044 105.588 296.844 105.597C297.645 105.526 298.206 105.453 298.527 105.376C298.533 104.896 298.582 104.097 298.675 102.978C298.848 101.78 298.984 100.461 299.08 99.0223C299.258 97.5043 299.437 95.8662 299.617 94.1082C299.797 92.3501 299.977 90.6321 300.156 88.954C300.523 84.878 300.974 80.4829 301.508 75.7687L302.348 65.3377L300.547 65.437L297.668 75.7245L289.882 105.757Z" fill="url(#paint0_diamond_8_2)"/>
<defs>
<radialGradient id="paint0_diamond_8_2" cx="0" cy="0" r="1" gradientUnits="userSpaceOnUse" gradientTransform="translate(323.5 94.9999) rotate(-178.617) scale(683.699 1979.36)">
<stop stop-color="#FF0000"/>
<stop offset="0.41331" stop-color="#BF3EFF"/>
<stop offset="1" stop-color="#FF0000" stop-opacity="0"/>
<stop offset="1" stop-color="#FF0219"/>
</radialGradient>
</defs>
</svg>
